<mxfile host="Electron" agent="Mozilla/5.0 (Windows NT 10.0; Win64; x64) AppleWebKit/537.36 (KHTML, like Gecko) draw.io/28.1.2 Chrome/138.0.7204.243 Electron/37.4.0 Safari/537.36" version="28.1.2">
  <diagram name="Side-1" id="JRzsUh1MuQP048kWKfoa">
    <mxGraphModel dx="1426" dy="841" grid="1" gridSize="10" guides="1" tooltips="1" connect="1" arrows="1" fold="1" page="1" pageScale="1" pageWidth="827" pageHeight="1169" math="0" shadow="0">
      <root>
        <mxCell id="0" />
        <mxCell id="1" parent="0" />
        <mxCell id="_dKjLDyfzIrh-5VfDfvs-3" style="edgeStyle=orthogonalEdgeStyle;rounded=0;orthogonalLoop=1;jettySize=auto;html=1;exitX=0.5;exitY=1;exitDx=0;exitDy=0;entryX=0.5;entryY=0;entryDx=0;entryDy=0;" edge="1" parent="1" source="_dKjLDyfzIrh-5VfDfvs-1" target="_dKjLDyfzIrh-5VfDfvs-2">
          <mxGeometry relative="1" as="geometry" />
        </mxCell>
        <mxCell id="_dKjLDyfzIrh-5VfDfvs-1" value="Start" style="rounded=1;whiteSpace=wrap;html=1;" vertex="1" parent="1">
          <mxGeometry x="340" y="20" width="120" height="60" as="geometry" />
        </mxCell>
        <mxCell id="_dKjLDyfzIrh-5VfDfvs-6" style="edgeStyle=orthogonalEdgeStyle;rounded=0;orthogonalLoop=1;jettySize=auto;html=1;exitX=1;exitY=1;exitDx=0;exitDy=0;entryX=0.5;entryY=0;entryDx=0;entryDy=0;" edge="1" parent="1" source="_dKjLDyfzIrh-5VfDfvs-2" target="_dKjLDyfzIrh-5VfDfvs-5">
          <mxGeometry relative="1" as="geometry" />
        </mxCell>
        <mxCell id="_dKjLDyfzIrh-5VfDfvs-7" value="Yes" style="edgeLabel;html=1;align=center;verticalAlign=middle;resizable=0;points=[];" vertex="1" connectable="0" parent="_dKjLDyfzIrh-5VfDfvs-6">
          <mxGeometry x="0.104" y="4" relative="1" as="geometry">
            <mxPoint as="offset" />
          </mxGeometry>
        </mxCell>
        <mxCell id="_dKjLDyfzIrh-5VfDfvs-13" style="edgeStyle=orthogonalEdgeStyle;rounded=0;orthogonalLoop=1;jettySize=auto;html=1;exitX=0;exitY=1;exitDx=0;exitDy=0;entryX=0.5;entryY=0;entryDx=0;entryDy=0;" edge="1" parent="1" source="_dKjLDyfzIrh-5VfDfvs-2" target="_dKjLDyfzIrh-5VfDfvs-12">
          <mxGeometry relative="1" as="geometry" />
        </mxCell>
        <mxCell id="_dKjLDyfzIrh-5VfDfvs-2" value="Score &amp;lt; 3?" style="rhombus;whiteSpace=wrap;html=1;" vertex="1" parent="1">
          <mxGeometry x="350" y="130" width="100" height="100" as="geometry" />
        </mxCell>
        <mxCell id="_dKjLDyfzIrh-5VfDfvs-5" value="You win/lose!" style="rounded=0;whiteSpace=wrap;html=1;" vertex="1" parent="1">
          <mxGeometry x="440" y="270" width="90" height="50" as="geometry" />
        </mxCell>
        <mxCell id="_dKjLDyfzIrh-5VfDfvs-9" value="End" style="rounded=1;whiteSpace=wrap;html=1;" vertex="1" parent="1">
          <mxGeometry x="450" y="360" width="80" height="50" as="geometry" />
        </mxCell>
        <mxCell id="_dKjLDyfzIrh-5VfDfvs-11" style="edgeStyle=orthogonalEdgeStyle;rounded=0;orthogonalLoop=1;jettySize=auto;html=1;exitX=0.5;exitY=1;exitDx=0;exitDy=0;entryX=0.425;entryY=-0.02;entryDx=0;entryDy=0;entryPerimeter=0;" edge="1" parent="1" source="_dKjLDyfzIrh-5VfDfvs-5" target="_dKjLDyfzIrh-5VfDfvs-9">
          <mxGeometry relative="1" as="geometry" />
        </mxCell>
        <mxCell id="_dKjLDyfzIrh-5VfDfvs-15" style="edgeStyle=orthogonalEdgeStyle;rounded=0;orthogonalLoop=1;jettySize=auto;html=1;exitX=0.5;exitY=1;exitDx=0;exitDy=0;entryX=0.5;entryY=0;entryDx=0;entryDy=0;" edge="1" parent="1" source="_dKjLDyfzIrh-5VfDfvs-12" target="_dKjLDyfzIrh-5VfDfvs-14">
          <mxGeometry relative="1" as="geometry" />
        </mxCell>
        <mxCell id="_dKjLDyfzIrh-5VfDfvs-12" value="Get user choice" style="rounded=0;whiteSpace=wrap;html=1;" vertex="1" parent="1">
          <mxGeometry x="190" y="270" width="100" height="40" as="geometry" />
        </mxCell>
        <mxCell id="_dKjLDyfzIrh-5VfDfvs-17" style="edgeStyle=orthogonalEdgeStyle;rounded=0;orthogonalLoop=1;jettySize=auto;html=1;exitX=0.5;exitY=1;exitDx=0;exitDy=0;entryX=0.5;entryY=0;entryDx=0;entryDy=0;" edge="1" parent="1" source="_dKjLDyfzIrh-5VfDfvs-14" target="_dKjLDyfzIrh-5VfDfvs-16">
          <mxGeometry relative="1" as="geometry" />
        </mxCell>
        <mxCell id="_dKjLDyfzIrh-5VfDfvs-14" value="Get computer choice" style="rounded=0;whiteSpace=wrap;html=1;" vertex="1" parent="1">
          <mxGeometry x="180" y="360" width="120" height="40" as="geometry" />
        </mxCell>
        <mxCell id="_dKjLDyfzIrh-5VfDfvs-20" style="edgeStyle=orthogonalEdgeStyle;rounded=0;orthogonalLoop=1;jettySize=auto;html=1;exitX=0.5;exitY=1;exitDx=0;exitDy=0;entryX=0.5;entryY=0;entryDx=0;entryDy=0;" edge="1" parent="1" source="_dKjLDyfzIrh-5VfDfvs-16" target="_dKjLDyfzIrh-5VfDfvs-18">
          <mxGeometry relative="1" as="geometry" />
        </mxCell>
        <mxCell id="_dKjLDyfzIrh-5VfDfvs-16" value="Announce and compare choices" style="rounded=0;whiteSpace=wrap;html=1;" vertex="1" parent="1">
          <mxGeometry x="180" y="460" width="120" height="60" as="geometry" />
        </mxCell>
        <mxCell id="_dKjLDyfzIrh-5VfDfvs-23" style="edgeStyle=orthogonalEdgeStyle;rounded=0;orthogonalLoop=1;jettySize=auto;html=1;exitX=0;exitY=1;exitDx=0;exitDy=0;entryX=0.5;entryY=0;entryDx=0;entryDy=0;" edge="1" parent="1" source="_dKjLDyfzIrh-5VfDfvs-18" target="_dKjLDyfzIrh-5VfDfvs-21">
          <mxGeometry relative="1" as="geometry" />
        </mxCell>
        <mxCell id="_dKjLDyfzIrh-5VfDfvs-24" value="user win" style="edgeLabel;html=1;align=center;verticalAlign=middle;resizable=0;points=[];" vertex="1" connectable="0" parent="_dKjLDyfzIrh-5VfDfvs-23">
          <mxGeometry x="-0.0971" y="-3" relative="1" as="geometry">
            <mxPoint as="offset" />
          </mxGeometry>
        </mxCell>
        <mxCell id="_dKjLDyfzIrh-5VfDfvs-25" style="edgeStyle=orthogonalEdgeStyle;rounded=0;orthogonalLoop=1;jettySize=auto;html=1;exitX=1;exitY=1;exitDx=0;exitDy=0;entryX=0.75;entryY=0;entryDx=0;entryDy=0;" edge="1" parent="1" source="_dKjLDyfzIrh-5VfDfvs-18" target="_dKjLDyfzIrh-5VfDfvs-22">
          <mxGeometry relative="1" as="geometry">
            <mxPoint x="370" y="690" as="targetPoint" />
            <Array as="points">
              <mxPoint x="370" y="654" />
            </Array>
          </mxGeometry>
        </mxCell>
        <mxCell id="_dKjLDyfzIrh-5VfDfvs-26" value="&amp;nbsp; computer win" style="edgeLabel;html=1;align=center;verticalAlign=middle;resizable=0;points=[];" vertex="1" connectable="0" parent="_dKjLDyfzIrh-5VfDfvs-25">
          <mxGeometry x="-0.3981" y="2" relative="1" as="geometry">
            <mxPoint as="offset" />
          </mxGeometry>
        </mxCell>
        <mxCell id="_dKjLDyfzIrh-5VfDfvs-27" style="edgeStyle=orthogonalEdgeStyle;rounded=0;orthogonalLoop=1;jettySize=auto;html=1;exitX=0.5;exitY=1;exitDx=0;exitDy=0;entryX=0.5;entryY=0;entryDx=0;entryDy=0;" edge="1" parent="1" source="_dKjLDyfzIrh-5VfDfvs-18" target="_dKjLDyfzIrh-5VfDfvs-19">
          <mxGeometry relative="1" as="geometry" />
        </mxCell>
        <mxCell id="_dKjLDyfzIrh-5VfDfvs-28" value="Tie" style="edgeLabel;html=1;align=center;verticalAlign=middle;resizable=0;points=[];" vertex="1" connectable="0" parent="_dKjLDyfzIrh-5VfDfvs-27">
          <mxGeometry x="-0.2174" y="1" relative="1" as="geometry">
            <mxPoint as="offset" />
          </mxGeometry>
        </mxCell>
        <mxCell id="_dKjLDyfzIrh-5VfDfvs-18" value="Decide winner" style="rhombus;whiteSpace=wrap;html=1;" vertex="1" parent="1">
          <mxGeometry x="180" y="560" width="120" height="125" as="geometry" />
        </mxCell>
        <mxCell id="_dKjLDyfzIrh-5VfDfvs-31" style="edgeStyle=orthogonalEdgeStyle;rounded=0;orthogonalLoop=1;jettySize=auto;html=1;exitX=1;exitY=1;exitDx=0;exitDy=0;entryX=1;entryY=0.5;entryDx=0;entryDy=0;" edge="1" parent="1" source="_dKjLDyfzIrh-5VfDfvs-19" target="_dKjLDyfzIrh-5VfDfvs-2">
          <mxGeometry relative="1" as="geometry">
            <Array as="points">
              <mxPoint x="240" y="860" />
              <mxPoint x="240" y="880" />
              <mxPoint x="600" y="880" />
              <mxPoint x="600" y="180" />
            </Array>
          </mxGeometry>
        </mxCell>
        <mxCell id="_dKjLDyfzIrh-5VfDfvs-19" value="Announce scores" style="rounded=0;whiteSpace=wrap;html=1;" vertex="1" parent="1">
          <mxGeometry x="180" y="800" width="120" height="60" as="geometry" />
        </mxCell>
        <mxCell id="_dKjLDyfzIrh-5VfDfvs-29" style="edgeStyle=orthogonalEdgeStyle;rounded=0;orthogonalLoop=1;jettySize=auto;html=1;exitX=0.5;exitY=1;exitDx=0;exitDy=0;entryX=0;entryY=0.5;entryDx=0;entryDy=0;" edge="1" parent="1" source="_dKjLDyfzIrh-5VfDfvs-21" target="_dKjLDyfzIrh-5VfDfvs-19">
          <mxGeometry relative="1" as="geometry" />
        </mxCell>
        <mxCell id="_dKjLDyfzIrh-5VfDfvs-21" value="+1 user score" style="rounded=0;whiteSpace=wrap;html=1;" vertex="1" parent="1">
          <mxGeometry x="50" y="700" width="120" height="60" as="geometry" />
        </mxCell>
        <mxCell id="_dKjLDyfzIrh-5VfDfvs-30" style="edgeStyle=orthogonalEdgeStyle;rounded=0;orthogonalLoop=1;jettySize=auto;html=1;exitX=0.5;exitY=1;exitDx=0;exitDy=0;entryX=1;entryY=0.5;entryDx=0;entryDy=0;" edge="1" parent="1" source="_dKjLDyfzIrh-5VfDfvs-22" target="_dKjLDyfzIrh-5VfDfvs-19">
          <mxGeometry relative="1" as="geometry" />
        </mxCell>
        <mxCell id="_dKjLDyfzIrh-5VfDfvs-22" value="+1 computer score" style="rounded=0;whiteSpace=wrap;html=1;" vertex="1" parent="1">
          <mxGeometry x="280" y="700" width="120" height="60" as="geometry" />
        </mxCell>
      </root>
    </mxGraphModel>
  </diagram>
</mxfile>
